<?xml version="1.0"?>
<svg width="1280" height="1228" xmlns="http://www.w3.org/2000/svg" xmlns:svg="http://www.w3.org/2000/svg" preserveAspectRatio="xMidYMid meet">
 <metadata>Created by potrace 1.15, written by Peter Selinger 2001-2017</metadata>
 <g class="layer">
  <title>Layer 1</title>
  <g fill="#000000" id="svg_1" transform="translate(0 1228) scale(0.1 -0.1)">
   <path d="m3580,10519c-418,-47 -855,-233 -1197,-510c-191,-155 -415,-411 -552,-631c-303,-485 -468,-1037 -512,-1713c-76,-1171 375,-2000 1524,-2802c212,-148 408,-273 822,-523c570,-344 790,-490 1082,-717c659,-511 1296,-1213 1537,-1693c29,-58 58,-121 65,-140l13,-35l18,50c139,397 809,1167 1560,1795c329,275 617,476 1240,865c743,464 1044,683 1364,995c484,471 737,947 833,1567c24,155 24,661 0,863c-59,490 -166,864 -357,1240c-135,265 -301,491 -511,695c-369,358 -792,567 -1309,647c-133,20 -528,17 -665,-5c-787,-131 -1435,-583 -1911,-1332c-64,-100 -179,-313 -229,-426l-39,-86l-101,201c-55,111 -137,260 -182,332c-497,793 -1205,1275 -2008,1364c-105,12 -378,11 -485,-1z" fill="#ff0000" id="svg_2"/>
  </g>
 </g>
</svg>